<?xml version="1.0" standalone="no"?>
<!DOCTYPE svg PUBLIC "-//W3C//DTD SVG 20010904//EN"
 "http://www.w3.org/TR/2001/REC-SVG-20010904/DTD/svg10.dtd">
<svg version="1.0" xmlns="http://www.w3.org/2000/svg"
 width="512.000000pt" height="512.000000pt" viewBox="0 0 512.000000 512.000000"
 preserveAspectRatio="xMidYMid meet">

<g transform="translate(0.000000,512.000000) scale(0.100000,-0.100000)"
fill="#000000" stroke="none">
<path d="M293 3835 c-39 -17 -73 -68 -73 -110 0 -17 47 -143 105 -279 58 -137
105 -253 105 -257 0 -5 -31 -9 -69 -9 -38 0 -92 -8 -121 -17 -70 -23 -150 -96
-180 -165 -43 -101 -37 -273 14 -399 25 -61 25 -65 8 -86 -9 -12 -30 -38 -46
-57 -58 -73 -39 -166 44 -209 51 -27 251 -19 331 12 l55 22 195 -85 c111 -49
208 -86 226 -86 22 0 38 8 52 26 48 61 16 96 -158 173 l-134 59 150 75 c177
89 203 113 203 189 0 64 -23 103 -75 128 -38 18 -63 20 -291 20 -145 0 -265
-5 -287 -11 -22 -6 -59 -30 -88 -58 l-49 -47 -11 35 c-7 20 -13 76 -13 126 -1
100 14 139 67 179 l28 21 1486 5 1485 5 19 24 c10 13 19 30 19 38 0 23 -28 70
-45 77 -9 3 -437 6 -950 6 l-933 0 -277 283 c-296 304 -339 339 -454 369 -84
22 -291 24 -338 3z m333 -162 c55 -19 154 -110 386 -355 l130 -138 -269 0
-270 0 -104 246 c-57 136 -105 251 -107 255 -7 17 182 10 234 -8z m179 -1051
c-6 -5 -114 -59 -242 -120 l-231 -112 -77 0 -76 0 98 111 c54 61 107 115 118
120 26 10 422 11 410 1z"/>
<path d="M3518 3160 c-36 -28 -38 -77 -5 -107 21 -20 36 -21 297 -26 231 -4
291 -8 373 -26 104 -23 226 -64 292 -99 l40 -21 -215 -1 c-259 -1 -291 -6
-338 -53 -28 -29 -36 -45 -40 -86 -7 -79 9 -104 122 -189 167 -124 132 -117
559 -120 l368 -3 -6 -32 c-11 -52 -51 -112 -92 -138 -116 -75 -411 -194 -592
-239 -201 -51 -313 -60 -714 -60 l-362 1 105 54 c58 30 115 66 128 80 40 46
24 133 -29 161 -40 20 -1363 21 -1412 0 -19 -7 -91 -75 -167 -155 -105 -110
-139 -141 -159 -141 -62 1 -171 33 -312 93 -132 57 -155 64 -180 55 -49 -17
-65 -77 -31 -116 20 -24 273 -135 347 -153 28 -6 53 -15 58 -18 4 -4 -54 -72
-129 -152 -75 -79 -145 -157 -155 -174 -43 -68 -11 -168 66 -205 44 -21 55
-22 238 -17 130 3 211 10 252 21 33 8 286 128 563 266 l502 250 529 0 c590 0
673 6 906 65 168 42 293 89 491 185 137 66 167 85 206 129 113 125 127 311 36
454 -37 58 -220 219 -336 294 -153 101 -326 172 -517 213 -84 19 -144 23 -380
27 -276 5 -280 5 -307 -17z m-1018 -1374 c-404 -202 -686 -337 -718 -344 -30
-7 -126 -12 -214 -12 l-160 0 243 258 c133 141 281 296 328 345 l86 87 550 -1
550 0 -665 -333z"/>
<path d="M1672 2871 c-56 -10 -120 -56 -146 -105 -25 -49 -33 -141 -16 -191
16 -49 66 -104 115 -126 58 -27 253 -26 311 0 117 53 160 212 88 328 -43 69
-96 93 -215 98 -52 2 -113 0 -137 -4z"/>
<path d="M2469 2871 c-97 -20 -161 -95 -167 -195 -5 -77 9 -126 51 -173 51
-58 96 -73 217 -73 133 0 171 11 224 64 60 59 79 142 55 229 -13 48 -73 115
-119 135 -39 16 -207 25 -261 13z"/>
<path d="M3270 2871 c-111 -24 -170 -101 -170 -221 0 -73 16 -114 60 -157 55
-54 101 -66 238 -62 115 4 122 5 164 34 114 81 129 258 28 349 -23 20 -53 42
-68 47 -34 14 -206 20 -252 10z"/>
</g>
</svg>
