<svg width="28" height="28" viewBox="0 0 28 28" fill="none" xmlns="http://www.w3.org/2000/svg">
<path d="M23.9567 4.07222C21.3627 1.43287 17.7768 0 14.1146 0C6.33259 0 0.0763437 6.25914 0.152578 13.8757C0.152578 16.2889 0.839234 18.6267 1.98373 20.7382L0 27.9023L7.40064 26.017C9.46061 27.1482 11.7494 27.6761 14.0384 27.6761C21.7442 27.6761 28.0004 21.4169 28.0004 13.8004C28.0004 10.1052 26.5508 6.63622 23.9568 4.07222H23.9567ZM14.1146 25.3384C12.0547 25.3384 9.99469 24.8106 8.23987 23.7548L7.78214 23.5286L3.35705 24.6597L4.50144 20.3613L4.19628 19.9088C0.839234 14.5546 2.44147 7.46573 7.93472 4.14757C13.428 0.829514 20.5235 2.41319 23.8805 7.84281C27.2374 13.2724 25.6352 20.2857 20.1421 23.6039C18.3871 24.735 16.2509 25.3383 14.1146 25.3383V25.3384ZM20.8286 16.9678L19.9894 16.5907C19.9894 16.5907 18.7687 16.0628 18.0057 15.6857C17.9294 15.6857 17.8532 15.6103 17.7768 15.6103C17.5479 15.6103 17.3953 15.6857 17.2428 15.7612C17.2428 15.7612 17.1665 15.8365 16.0984 17.0431C16.022 17.194 15.8694 17.2694 15.7169 17.2694H15.6405C15.5643 17.2694 15.4117 17.194 15.3354 17.1186L14.9539 16.9678C14.1146 16.5907 13.3517 16.1382 12.7413 15.5349C12.5887 15.3841 12.3598 15.2333 12.2072 15.0825C11.6732 14.5546 11.1391 13.9513 10.7577 13.2725L10.6813 13.1217C10.6051 13.0463 10.6051 12.9709 10.5288 12.8201C10.5288 12.6693 10.5288 12.5185 10.6051 12.443C10.6051 12.443 10.9103 12.066 11.1391 11.8398C11.2918 11.6889 11.368 11.4627 11.5206 11.3119C11.6732 11.0856 11.7495 10.784 11.6732 10.5577C11.5969 10.1807 10.6813 8.14454 10.4525 7.69211C10.2998 7.46584 10.1474 7.39049 9.91845 7.31503H9.07922C8.92653 7.31503 8.77406 7.39049 8.62138 7.39049L8.54503 7.46584C8.39245 7.5413 8.23987 7.69211 8.0873 7.76746C7.93472 7.91838 7.85838 8.06909 7.7058 8.22C7.17172 8.89871 6.86656 9.72822 6.86656 10.5577C6.86656 11.161 7.01914 11.7643 7.24806 12.2922L7.32441 12.5185C8.01106 13.9512 8.92653 15.2333 10.1474 16.3644L10.4525 16.6661C10.6813 16.8923 10.9103 17.0431 11.0628 17.2693C12.6651 18.6268 14.4961 19.6071 16.5561 20.135C16.785 20.2104 17.0902 20.2104 17.3191 20.2858H18.082C18.4635 20.2858 18.9212 20.135 19.2265 19.9842C19.4553 19.8334 19.6079 19.8334 19.7605 19.6826L19.9131 19.5317C20.0657 19.3809 20.2183 19.3055 20.3709 19.1547C20.5235 19.0039 20.676 18.8531 20.7524 18.7022C20.905 18.4005 20.9812 18.0235 21.0575 17.6465V17.1186C21.0575 17.1186 20.9812 17.0431 20.8286 16.9678Z" fill="white"/>
</svg>
